<svg width="60" height="32" viewBox="0 0 60 32" fill="none" xmlns="http://www.w3.org/2000/svg">
<path d="M36.5 -2.26498e-06C41 -2.26498e-06 44.7167 0.433331 47.65 1.3C50.5833 2.16667 52.8833 3.35 54.55 4.85C56.2167 6.35 57.3833 8.06667 58.05 10C58.75 11.9 59.1 13.9 59.1 16C59.1 18.1 58.7167 20.1167 57.95 22.05C57.1833 23.95 55.9167 25.65 54.15 27.15C52.4167 28.65 50.1 29.8333 47.2 30.7C44.3333 31.5667 40.7667 32 36.5 32H0.5V-2.26498e-06H36.5ZM13 22H36C37.8667 22 39.45 21.8833 40.75 21.65C42.05 21.3833 43.0833 21 43.85 20.5C44.65 20 45.2167 19.3833 45.55 18.65C45.9167 17.8833 46.1 17 46.1 16C46.1 15 45.9167 14.1333 45.55 13.4C45.2167 12.6333 44.65 12 43.85 11.5C43.0833 11 42.05 10.6333 40.75 10.4C39.45 10.1333 37.8667 10 36 10H13V22Z" fill="#6A9C89"/>
</svg>
